<?xml version="1.0" encoding="utf-8"?>
<!-- Generator: Adobe Illustrator 25.4.1, SVG Export Plug-In . SVG Version: 6.00 Build 0)  -->
<svg version="1.1" id="Camada_1" xmlns="http://www.w3.org/2000/svg" xmlns:xlink="http://www.w3.org/1999/xlink" x="0px" y="0px"
	 viewBox="0 0 410.28 309.7" style="enable-background:new 0 0 410.28 309.7;" xml:space="preserve">
<style type="text/css">
	.st0{fill:#0C0C0C;}
</style>
<g>
	<path class="st0" d="M205.59,49.79c6.86,0,12.47,4.52,15.97,13.21c9.27,22.99,18.5,46.01,27.59,69.07c1.55,3.94,3.7,5.45,8.04,5.45
		c0.05,0,0.09,0,0.14,0c14.85-0.11,29.71-0.14,44.56-0.14c13.91,0,27.81,0.03,41.72,0.05c10.85,0.01,17.7,6.61,18.39,17.5
		c0,2.17-0.32,5.34-2.04,8.51c-2.18,4.01-5.56,6.04-6.7,6.75c-25.68,15.89-51.24,31.97-76.85,47.97
		c-20.85,13.02-41.68,26.09-62.61,38.98c-3.16,1.94-6.55,2.86-9.82,2.86c-6.68,0-12.85-3.8-15.51-10.39
		c-9.71-24.05-19.54-48.05-28.95-72.21c-1.58-4.06-3.56-5.07-7.5-5.07c-0.04,0-0.08,0-0.12,0c-14.94,0.08-29.88,0.09-44.81,0.09
		c-13.8,0-27.6-0.02-41.4-0.02c-9.91,0-14.25-3.21-17.4-12.82c-0.65-3.05-1.3-8.44,1.38-13.5c2.36-4.46,6.25-6.59,7.82-7.51
		c10.86-6.36,21.49-13.14,32.16-19.81c34.66-21.67,69.27-43.43,103.98-65.03C197.88,51.09,201.92,49.79,205.59,49.79 M205.59,8.63
		c-11.53,0-22.87,3.42-33.7,10.16c-22.22,13.82-44.74,27.93-66.52,41.58c-12.51,7.84-25.01,15.67-37.53,23.5
		c-2.05,1.28-4.1,2.57-6.15,3.85c-8.61,5.4-16.75,10.51-25,15.35l-0.11,0.06c-3.83,2.23-15.5,9.02-23.27,23.67
		c-6.59,12.42-8.41,26.73-5.27,41.4l0.46,2.15l0.69,2.09c8.71,26.52,28.78,41.12,56.5,41.13c6.22,0,12.45,0.01,18.67,0.01
		c7.58,0,15.16,0.01,22.73,0.01c8.26,0,15.64-0.01,22.46-0.02c4.69,11.76,9.43,23.46,14.06,34.91c2.23,5.51,4.47,11.03,6.69,16.54
		c8.86,21.96,29.93,36.15,53.68,36.15c11.02,0,21.88-3.1,31.41-8.97c16.52-10.18,33.19-20.6,49.32-30.68c4.5-2.81,9-5.63,13.5-8.44
		c8.14-5.08,16.28-10.18,24.42-15.27c17.13-10.73,34.85-21.82,52.29-32.6l0.05-0.03c9.15-5.65,16.27-13.07,21.15-22.04
		c4.62-8.49,7.06-18.24,7.05-28.22l0-1.28l-0.08-1.27c-0.99-15.64-7.39-29.85-18.04-40.02c-10.83-10.34-25.52-16.04-41.38-16.06
		l-11.65-0.02c-10.04-0.01-20.08-0.03-30.12-0.03c-8.18,0-15.67,0.01-22.66,0.03c-6.91-17.37-13.59-33.98-19.5-48.64
		c-4.34-10.77-10.65-19.61-18.77-26.28C230.85,13.02,218.61,8.63,205.59,8.63L205.59,8.63z"/>
</g>
</svg>
