<?xml version="1.0" encoding="utf-8"?>
<!-- Generator: Adobe Illustrator 25.4.1, SVG Export Plug-In . SVG Version: 6.00 Build 0)  -->
<svg version="1.1" id="Camada_1" xmlns="http://www.w3.org/2000/svg" xmlns:xlink="http://www.w3.org/1999/xlink" x="0px" y="0px"
	 viewBox="0 0 818 617.47" style="enable-background:new 0 0 818 617.47;" xml:space="preserve">
<style type="text/css">
	.st0{fill:#0C0C0C;}
</style>
<g>
	<path class="st0" d="M410.11,109.05c13.03,0,23.69,8.59,30.34,25.1c17.61,43.7,35.15,87.43,52.42,131.26
		c2.95,7.5,7.03,10.36,15.29,10.36c0.09,0,0.18,0,0.27,0c28.24-0.21,56.48-0.27,84.72-0.27c26.42,0,52.83,0.05,79.24,0.09
		c20.61,0.03,33.64,12.55,34.94,33.26c0,4.13-0.6,10.16-3.87,16.17c-4.15,7.62-10.56,11.47-12.74,12.82
		c-48.8,30.19-97.37,60.76-146.04,91.15c-39.63,24.74-79.2,49.58-118.97,74.08c-6,3.69-12.44,5.43-18.66,5.43
		c-12.69,0-24.42-7.22-29.47-19.74c-18.44-45.7-37.13-91.31-55.01-137.23c-3-7.71-6.76-9.63-14.26-9.63c-0.07,0-0.15,0-0.22,0
		c-28.38,0.14-56.76,0.18-85.14,0.18c-26.23,0-52.46-0.03-78.7-0.04c-18.82,0-27.07-6.1-33.07-24.36
		c-1.24-5.79-2.46-16.05,2.63-25.65c4.49-8.47,11.88-12.52,14.87-14.27c20.64-12.09,40.83-24.96,61.12-37.65
		c65.87-41.18,131.63-82.54,197.59-123.58C395.47,111.51,403.13,109.05,410.11,109.05 M410.11,30.82c-21.91,0-43.46,6.5-64.05,19.3
		c-42.21,26.27-85,53.07-126.37,79c-23.39,14.65-47.57,29.8-71.35,44.67c-3.9,2.44-7.8,4.88-11.69,7.33
		c-16.36,10.27-31.82,19.97-47.5,29.16l-0.21,0.12c-7.28,4.24-29.45,17.15-44.21,44.98c-12.52,23.59-15.98,50.8-10.02,78.66
		l0.87,4.09l1.31,3.97c8.28,25.18,21.24,44.02,39.63,57.57c18.79,13.85,40.95,20.58,67.74,20.59c11.81,0,23.62,0.01,35.43,0.02
		c14.43,0.01,28.85,0.02,43.28,0.02c15.69,0,29.71-0.01,42.65-0.04c8.92,22.36,17.92,44.59,26.74,66.36
		c4.24,10.47,8.48,20.93,12.7,31.41c16.84,41.73,56.88,68.69,102.01,68.69c20.94,0,41.57-5.9,59.68-17.05
		c31.4-19.34,63.08-39.15,93.72-58.3c8.55-5.34,17.1-10.69,25.65-16.03c15.47-9.66,30.93-19.34,46.39-29.01
		c32.57-20.39,66.24-41.47,99.38-61.97l0.09-0.05c17.39-10.74,30.92-24.84,40.2-41.89c8.9-16.35,13.41-34.39,13.39-53.62l0-2.43
		l-0.15-2.43c-1.87-29.72-14.05-56.73-34.28-76.05c-20.58-19.64-48.5-30.48-78.63-30.52l-21.94-0.03
		c-18.8-0.03-38.25-0.06-57.4-0.06c-15.57,0-29.8,0.02-43.1,0.06c-13.13-33.02-25.83-64.59-37.05-92.43
		c-8.25-20.46-20.25-37.26-35.67-49.93C458.11,39.17,434.86,30.82,410.11,30.82L410.11,30.82z"/>
</g>
</svg>
