<?xml version="1.0" encoding="utf-8"?>
<!-- Generator: Adobe Illustrator 25.4.1, SVG Export Plug-In . SVG Version: 6.00 Build 0)  -->
<svg version="1.1" id="Camada_1" xmlns="http://www.w3.org/2000/svg" xmlns:xlink="http://www.w3.org/1999/xlink" x="0px" y="0px"
	 viewBox="0 0 24 24" style="enable-background:new 0 0 24 24;" xml:space="preserve">
<style type="text/css">
	.st0{fill:#0C0C0C;}
</style>
<g>
	<path class="st0" d="M12.04,5.94c0.4,0,0.72,0.26,0.92,0.76c0.53,1.33,1.07,2.65,1.59,3.98c0.09,0.23,0.21,0.31,0.46,0.31
		c0,0,0.01,0,0.01,0c0.86-0.01,1.71-0.01,2.57-0.01c0.8,0,1.6,0,2.4,0c0.63,0,1.02,0.38,1.06,1.01c0,0.13-0.02,0.31-0.12,0.49
		c-0.13,0.23-0.32,0.35-0.39,0.39c-1.48,0.92-2.95,1.84-4.43,2.76c-1.2,0.75-2.4,1.5-3.61,2.25c-0.18,0.11-0.38,0.16-0.57,0.16
		c-0.38,0-0.74-0.22-0.89-0.6c-0.56-1.39-1.13-2.77-1.67-4.16C9.3,13.06,9.18,13,8.96,13c0,0,0,0-0.01,0
		c-0.86,0-1.72,0.01-2.58,0.01c-0.8,0-1.59,0-2.39,0c-0.57,0-0.82-0.19-1-0.74c-0.04-0.18-0.07-0.49,0.08-0.78
		c0.14-0.26,0.36-0.38,0.45-0.43c0.63-0.37,1.24-0.76,1.85-1.14c2-1.25,3.99-2.5,5.99-3.75C11.6,6.02,11.83,5.94,12.04,5.94
		 M12.04,3.06c-0.76,0-1.5,0.22-2.21,0.66C8.55,4.52,7.28,5.32,6,6.12L3.84,7.48L3.48,7.7C3.01,8,2.53,8.29,2.05,8.58
		c-0.68,0.4-1.2,0.92-1.54,1.57c-0.44,0.82-0.56,1.77-0.35,2.73l0.03,0.15l0.05,0.15c0.57,1.73,1.93,2.72,3.74,2.72l1.08,0l1.31,0
		c0.32,0,0.63,0,0.95,0c0.23,0.57,0.46,1.13,0.68,1.69l0.39,0.95c0.59,1.46,1.99,2.4,3.56,2.4c0.73,0,1.45-0.2,2.08-0.59
		c0.95-0.59,1.9-1.18,2.84-1.77l0.78-0.49l1.41-0.88c1-0.63,2.01-1.26,3.01-1.88c0.61-0.37,1.08-0.87,1.4-1.46
		c0.31-0.56,0.47-1.21,0.47-1.87l0-0.09l-0.01-0.09c-0.14-2.15-1.79-3.7-3.93-3.71l-0.66,0l-1.74,0c-0.32,0-0.64,0-0.96,0
		c-0.33-0.83-0.66-1.66-1-2.48C15,4.05,13.62,3.06,12.04,3.06L12.04,3.06z"/>
</g>
</svg>
